<svg xmlns="http://www.w3.org/2000/svg" width="2200" height="700" viewBox="0 0 2200 700" fill="none">
  <rect width="2200" height="700" rx="36" fill="none"/>
  <g transform="translate(120,140)">
    <svg xmlns="http://www.w3.org/2000/svg" width="190" height="190" viewBox="0 0 196 196" fill="none">
  <defs>
    <linearGradient id="gDoc" x1="20" y1="16" x2="166" y2="176" gradientUnits="userSpaceOnUse">
      <stop stop-color="#B6EFD9"/>
      <stop offset="1" stop-color="#2ECB82"/>
    </linearGradient>
    <linearGradient id="gFold" x1="137" y1="19" x2="179" y2="51" gradientUnits="userSpaceOnUse">
      <stop stop-color="#F4FFFB"/>
      <stop offset="1" stop-color="#CFEFE2"/>
    </linearGradient>
    <filter id="shadow" x="-20%" y="-20%" width="140%" height="140%">
      <feDropShadow dx="0" dy="6" stdDeviation="8" flood-color="#8fe2bf" flood-opacity="0.23"/>
    </filter>
  </defs>
  <rect width="196" height="196" rx="40" fill="none" fill-opacity="0"/>
  <g filter="url(#shadow)">
    <path d="M42 22C32.059 22 24 30.059 24 40V156C24 165.941 32.059 174 42 174H146C155.941 174 164 165.941 164 156V68.426c0-5.041-2.001-9.876-5.563-13.442L131.016 27.563A19 19 0 0 0 117.574 22H42Z" fill="url(#gDoc)"/>
    <path d="M117 22v28c0 10.493 8.507 19 19 19h28" fill="url(#gFold)"/>
    <path d="M117 22v28c0 10.493 8.507 19 19 19h28" opacity="0.38" stroke="#FFFFFF" stroke-width="2.5"/>
    <path d="M42 22C32.059 22 24 30.059 24 40V156C24 165.941 32.059 174 42 174H146C155.941 174 164 165.941 164 156V68.426c0-5.041-2.001-9.876-5.563-13.442L131.016 27.563A19 19 0 0 0 117.574 22H42Z" stroke="rgba(255,255,255,0.14)"/>
    <path d="M48 108L80 140L144 76" stroke="#FFFFFF" stroke-width="24" stroke-linecap="round" stroke-linejoin="round"/>
  </g>
</svg>
  </g>
  <text x="410" y="307" font-family="Inter, Manrope, DejaVu Sans, Arial, sans-serif" font-size="122" font-weight="800" fill="#0D1720">Чистовик</text>
  <text x="412" y="382" font-family="Inter, Manrope, DejaVu Sans, Arial, sans-serif" font-size="40" font-weight="500" letter-spacing="0.4" fill="#65D7A8">бот для проверки документов</text>
</svg>